<svg xmlns="http://www.w3.org/2000/svg" xmlns:xlink="http://www.w3.org/1999/xlink" width="100" height="100" viewBox="0 0 100 100">
  <defs>
    <linearGradient id="linear-gradient" x1="0.5" x2="0.5" y2="1" gradientUnits="objectBoundingBox">
      <stop offset="0" stop-color="#708dff"/>
      <stop offset="1" stop-color="#5179f4"/>
    </linearGradient>
  </defs>
  <g id="LOGO" transform="translate(-55.971 -1067.711)">
    <rect id="Rectangle_197" data-name="Rectangle 197" width="100" height="100" rx="14.164" transform="translate(55.971 1067.711)" fill="url(#linear-gradient)"/>
    <g id="Group_107" data-name="Group 107" transform="translate(64.834 1086.863)">
      <path id="Path_365" data-name="Path 365" d="M123.071,1093.337a3.208,3.208,0,0,1,.613-1.9h5.295a3.208,3.208,0,0,1,.613,1.9,3.261,3.261,0,0,1-6.522,0Z" transform="translate(-77.773 -1091.439)" fill="#ffdfa0"/>
      <path id="Path_366" data-name="Path 366" d="M127.141,1102.853v9.791a2.7,2.7,0,0,0,.25.283c2.284,2.308,6.869,6.005,6.869,6.643,0,.807-4.843,3.229-4.843,4.036s1.614,1.614,1.614,2.421c0,.508-1.889,1.63-3.89,2.615-.17.081-.331.153-.5.234a27.967,27.967,0,0,1-2.873,1.187c-1.6.533.678,1.065,2.873,1.832.169.056.339.121.5.186a6.691,6.691,0,0,1,2.276,1.211c1.219,1.219-1.235,1.977-2.171,2.97a.768.768,0,0,0,.678.4h29.267a.789.789,0,0,1,.783.783v9.064a.789.789,0,0,1-.783.783H118.569v-.186a1.033,1.033,0,0,0,.355-.1c1.614-.807,1.614-1.614,1.614-3.229a19,19,0,0,0-1.614-6.457c-.807-1.614,4.036-2.422,2.421-4.036a8.065,8.065,0,0,0-2.777-1.4c-.7-.242-1.4-.468-1.994-.67a.794.794,0,0,1-.444-.4.843.843,0,0,1-.081-.347.7.7,0,0,1,.081-.339.746.746,0,0,1,.412-.387c.622-.242,1.324-.549,2.026-.88,2.179-1.025,4.391-2.3,4.391-2.849,0-.807-1.614-1.614-1.614-2.421s4.843-3.229,4.843-4.036c0-.638-4.585-4.334-6.869-6.643a2.941,2.941,0,0,1-.71-1.13.967.967,0,0,1-.04-.266v-2.438a37.912,37.912,0,0,0,0-4.318v-.161a.531.531,0,0,0-.008-.113.851.851,0,0,0-.016-.2v-.024c-.008-.032-.008-.073-.016-.1a12.826,12.826,0,0,0-2.333-5.174.773.773,0,0,1-.145-.452v-6.32a.777.777,0,0,1,.387-.67.731.731,0,0,1,.4-.113h2.4a5.913,5.913,0,0,0-.307,1.9,6.054,6.054,0,1,0,12.107,0,5.913,5.913,0,0,0-.307-1.9h26.467a.789.789,0,0,1,.783.783v9.064a.789.789,0,0,1-.783.783H127.924A.789.789,0,0,0,127.141,1102.853Z" transform="translate(-76.42 -1091.439)" fill="#ffdfa0"/>
      <path id="Path_367" data-name="Path 367" d="M119.949,1119.568c0-.637-4.585-4.334-6.869-6.643a2.727,2.727,0,0,1-.25-.283,2.882,2.882,0,0,1-.412-.721,1.433,1.433,0,0,1-.089-.529v-2.232c0-.032,0-.062,0-.094a38.7,38.7,0,0,0,0-4.294v-.161a.534.534,0,0,0-.008-.113.849.849,0,0,0-.016-.2v-.024c-.008-.032-.008-.073-.016-.1a7.335,7.335,0,0,0-.266-1.162,15.987,15.987,0,0,0-2.962-5.174.3.3,0,0,0-.04-.049q-.291-.4-.605-.8a23.768,23.768,0,0,0-5.739-5.182,2.255,2.255,0,0,0-.549-.25,1.955,1.955,0,0,0-.525-.1.724.724,0,0,0-.186-.016H68.565a1.614,1.614,0,0,0-1.614,1.614v52.627a1.614,1.614,0,0,0,1.614,1.614h43.764v-.186a1.027,1.027,0,0,0,.355-.1c1.614-.807,1.614-1.614,1.614-3.229a19,19,0,0,0-1.614-6.457.738.738,0,0,1-.016-.686,1.415,1.415,0,0,1,.266-.379c.936-.993,3.39-1.751,2.171-2.97a6.7,6.7,0,0,0-2.276-1.211c-.161-.064-.331-.129-.5-.186-2.2-.767-4.472-1.3-2.873-1.832a27.913,27.913,0,0,0,2.873-1.187c.17-.081.331-.153.5-.234,2-.985,3.89-2.107,3.89-2.615,0-.807-1.614-1.614-1.614-2.421S119.949,1120.375,119.949,1119.568Zm-19.674,17.1H79.083a1.614,1.614,0,0,1-1.614-1.614v-31.366a1.614,1.614,0,0,1,1.614-1.614H96.63l.169.089a10.575,10.575,0,0,1,4.942,5.955,1.592,1.592,0,0,1,.078.5v26.5A1.545,1.545,0,0,1,100.274,1136.664Z" transform="translate(-66.951 -1091.439)" fill="#fff"/>
      <path id="Path_368" data-name="Path 368" d="M155.806,1160.639v7.661a1.614,1.614,0,0,1-2.622,1.261l-11.163-8.921Z" transform="translate(-81.428 -1104.784)" fill="#ffdfa0"/>
    </g>
  </g>
</svg>
