<svg xmlns="http://www.w3.org/2000/svg" width="15" height="15" viewBox="0 0 15 15">
  <path id="Path_363" data-name="Path 363" d="M74.049,72.817a2.842,2.842,0,1,0-2.564,0,4.056,4.056,0,0,0-2.767,3.84.344.344,0,0,0,.688,0,3.361,3.361,0,1,1,6.721,0,.344.344,0,0,0,.688,0A4.056,4.056,0,0,0,74.049,72.817Zm-3.436-2.535a2.154,2.154,0,1,1,2.154,2.154A2.156,2.156,0,0,1,70.613,70.281Zm7.481-2.795a7.5,7.5,0,1,0,2.2,5.3A7.451,7.451,0,0,0,78.094,67.487ZM72.791,79.6A6.812,6.812,0,1,1,79.6,72.79,6.82,6.82,0,0,1,72.791,79.6Z" transform="translate(-65.291 -65.29)"/>
</svg>
